<svg width="67" height="17" viewBox="0 0 67 17" fill="none" xmlns="http://www.w3.org/2000/svg">
<path fill-rule="evenodd" clip-rule="evenodd" d="M6.99925 17C3.1335 17 0 13.1936 0 8.5C0 3.80638 3.1335 0 6.99925 0C10.8665 0 14 3.80638 14 8.5C14 13.1936 10.8665 17 6.99925 17Z" fill="#38200D"/>
<path fill-rule="evenodd" clip-rule="evenodd" d="M3.24602 5.20099C2.89857 5.02614 2.83516 4.45078 3.10424 3.91608C3.37333 3.38138 3.87319 3.08949 4.22064 3.26434C4.56823 3.43926 4.472 3.93287 4.20291 4.46757C3.93382 5.00227 3.59361 5.37592 3.24602 5.20099Z" fill="#F1F0F0"/>
<path fill-rule="evenodd" clip-rule="evenodd" d="M1 12.1428C8.25152 11.2999 9.92846 1.83145 11.0805 3.12037C17.8009 12.7873 5.03221 21.1653 1 12.1428Z" fill="#211304"/>
<path d="M1 12.1428C8.25152 11.2999 9.92846 1.83145 11.0805 3.12037C17.8009 12.7873 5.03221 21.1653 1 12.1428Z" fill="#211304"/>
<path fill-rule="evenodd" clip-rule="evenodd" d="M59.9992 17C56.1335 17 53 13.1936 53 8.5C53 3.80638 56.1335 0 59.9992 0C63.8665 0 67 3.80638 67 8.5C67 13.1936 63.8665 17 59.9992 17Z" fill="#38200D"/>
<path fill-rule="evenodd" clip-rule="evenodd" d="M56.7653 5.20099C56.4179 5.02614 56.3544 4.45078 56.6235 3.91608C56.8926 3.38138 57.3925 3.08949 57.7399 3.26434C58.0875 3.43926 57.9913 3.93287 57.7222 4.46757C57.4531 5.00227 57.1129 5.37592 56.7653 5.20099Z" fill="#F1F0F0"/>
<path fill-rule="evenodd" clip-rule="evenodd" d="M54 12.1428C61.2515 11.2999 62.9285 1.83145 64.0805 3.12037C70.8009 12.7873 58.0322 21.1653 54 12.1428Z" fill="#211304"/>
<path d="M54 12.1428C61.2515 11.2999 62.9285 1.83145 64.0805 3.12037C70.8009 12.7873 58.0322 21.1653 54 12.1428Z" fill="#211304"/>
</svg>
