<svg width="150" height="205" viewBox="0 0 150 205" fill="none" xmlns="http://www.w3.org/2000/svg">
<rect width="150" height="205" rx="16" fill="#FEEFBC"/>
<path fill-rule="evenodd" clip-rule="evenodd" d="M128 97.5C128 97.5 142.297 94.9716 142.978 112.071C143.661 129.17 128 126.9 128 126.9V97.5Z" fill="url(#paint0_linear)"/>
<path fill-rule="evenodd" clip-rule="evenodd" d="M21 98C21 98 6.70341 94.9716 6.02167 112.071C5.33934 129.17 21 126.9 21 126.9V98Z" fill="url(#paint1_linear)"/>
<mask id="mask0" mask-type="alpha" maskUnits="userSpaceOnUse" x="19" y="31" width="110" height="155">
<path d="M19.4746 31H128.846V185.567H19.4746V31Z" fill="url(#paint2_linear)"/>
</mask>
<g mask="url(#mask0)">
<path fill-rule="evenodd" clip-rule="evenodd" d="M128.799 115.249C128.799 155.068 101.468 186.272 75.2159 185.555C48.9638 184.837 19.4746 152.916 19.4746 113.097C19.4746 73.2774 26.1569 31.511 75.4327 31.0056C132.424 30.421 128.799 75.429 128.799 115.249Z" fill="url(#paint3_linear)"/>
</g>
<path fill-rule="evenodd" clip-rule="evenodd" d="M76.5048 101.767C76.196 100.865 74.9203 100.866 74.6124 101.768L66.6325 125.151C66.281 126.18 66.8173 127.302 67.8395 127.675L73.1372 129.609C74.6388 130.158 76.2381 130.128 77.7262 129.524L83.2468 127.284C84.2304 126.885 84.7309 125.787 84.387 124.783L76.5048 101.767Z" fill="url(#paint4_linear)"/>
<path d="M60.5 76C55.5974 71.1237 41 70.7421 35 81" stroke="#1C1B1B" stroke-width="2" stroke-linecap="round"/>
<path fill-rule="evenodd" clip-rule="evenodd" d="M46.876 104C41.1847 104 39 99.0749 39 93C39 86.9251 41.1847 82 46.876 82C52.5673 82 55 86.9251 55 93C55 99.0749 52.5673 104 46.876 104Z" fill="#F1F0F0"/>
<path fill-rule="evenodd" clip-rule="evenodd" d="M57 106.5C57 108.433 52.5227 110 47 110C41.4773 110 37 108.433 37 106.5C37 104.567 41.4773 103 47 103C52.5227 103 57 104.567 57 106.5Z" fill="url(#paint5_linear)"/>
<path d="M89 76C93.9026 71.1237 108.5 70.7421 114.5 81" stroke="#1C1B1B" stroke-width="2" stroke-linecap="round"/>
<path fill-rule="evenodd" clip-rule="evenodd" d="M100.124 104C105.815 104 108 99.0749 108 93C108 86.9251 105.815 82 100.124 82C94.4327 82 92 86.9251 92 93C92 99.0749 94.4327 104 100.124 104Z" fill="#F1F0F0"/>
<path fill-rule="evenodd" clip-rule="evenodd" d="M111 106.5C111 108.433 106.523 110 101 110C95.4773 110 91 108.433 91 106.5C91 104.567 95.4773 103 101 103C106.523 103 111 104.567 111 106.5Z" fill="url(#paint6_linear)"/>
<path fill-rule="evenodd" clip-rule="evenodd" d="M61.0001 143.78C60.9698 145.544 67.8842 145.486 76.4443 145.5C85.005 145.514 91.9694 145.595 91.9999 143.831C92.0302 142.067 85.0044 142.514 76.4443 142.5C67.8842 142.486 61.0306 142.016 61.0001 143.78Z" fill="#67301D"/>
<defs>
<linearGradient id="paint0_linear" x1="135.5" y1="97.3683" x2="135.5" y2="127" gradientUnits="userSpaceOnUse">
<stop offset="0.11804" stop-color="#A76D39"/>
<stop offset="1" stop-color="#8C4C35"/>
</linearGradient>
<linearGradient id="paint1_linear" x1="13.5" y1="97.7928" x2="13.5" y2="127" gradientUnits="userSpaceOnUse">
<stop offset="0.11804" stop-color="#A76D39"/>
<stop offset="1" stop-color="#8C4C35"/>
</linearGradient>
<linearGradient id="paint2_linear" x1="74.1601" y1="31" x2="74.1601" y2="185.567" gradientUnits="userSpaceOnUse">
<stop stop-color="#F0B986"/>
<stop offset="1" stop-color="#ECA25F"/>
</linearGradient>
<linearGradient id="paint3_linear" x1="51.5" y1="112" x2="95.5" y2="182" gradientUnits="userSpaceOnUse">
<stop stop-color="#D98E4A"/>
<stop offset="1" stop-color="#904E2D"/>
</linearGradient>
<linearGradient id="paint4_linear" x1="63" y1="117.5" x2="79.5" y2="128.5" gradientUnits="userSpaceOnUse">
<stop stop-color="#CF794D" stop-opacity="0.08"/>
<stop offset="0.644514" stop-color="#9B5633"/>
</linearGradient>
<linearGradient id="paint5_linear" x1="47" y1="103" x2="47" y2="110" gradientUnits="userSpaceOnUse">
<stop stop-color="#8A4126"/>
<stop offset="1" stop-color="#8A4126" stop-opacity="0"/>
</linearGradient>
<linearGradient id="paint6_linear" x1="101" y1="103" x2="101" y2="110" gradientUnits="userSpaceOnUse">
<stop stop-color="#8A4126"/>
<stop offset="1" stop-color="#8A4126" stop-opacity="0"/>
</linearGradient>
</defs>
</svg>
